<svg width="28" height="30" viewBox="0 0 28 30" fill="none" xmlns="http://www.w3.org/2000/svg" xmlns:xlink="http://www.w3.org/1999/xlink">
<path d="M18.667,14.213L16.685,14.487L18.667,14.213ZM14.735,10L14.421,11.975L14.735,10ZM20.417,6.125C19.312,6.125 18.417,7.02 18.417,8.125C18.417,9.23 19.312,10.125 20.417,10.125L20.417,6.125ZM20.428,10.125C21.533,10.125 22.428,9.23 22.428,8.125C22.428,7.02 21.533,6.125 20.428,6.125L20.428,10.125ZM8.167,4.5L19.833,4.5L19.833,0.5L8.167,0.5L8.167,4.5ZM19.833,4.5C21.823,4.5 23.667,6.271 23.667,8.75L27.667,8.75C27.667,4.326 24.287,0.5 19.833,0.5L19.833,4.5ZM23.667,8.75L23.667,21.25L27.667,21.25L27.667,8.75L23.667,8.75ZM23.667,21.25C23.667,23.729 21.823,25.5 19.833,25.5L19.833,29.5C24.287,29.5 27.667,25.674 27.667,21.25L23.667,21.25ZM19.833,25.5L8.167,25.5L8.167,29.5L19.833,29.5L19.833,25.5ZM8.167,25.5C6.177,25.5 4.333,23.729 4.333,21.25L0.333,21.25C0.333,25.674 3.713,29.5 8.167,29.5L8.167,25.5ZM4.333,21.25L4.333,8.75L0.333,8.75L0.333,21.25L4.333,21.25ZM4.333,8.75C4.333,6.271 6.177,4.5 8.167,4.5L8.167,0.5C3.713,0.5 0.333,4.326 0.333,8.75L4.333,8.75ZM16.685,14.487C16.776,15.141 16.67,15.804 16.393,16.377L19.993,18.12C20.619,16.827 20.845,15.365 20.648,13.938L16.685,14.487ZM16.393,16.377C16.116,16.949 15.69,17.387 15.199,17.652L17.098,21.172C18.36,20.492 19.365,19.416 19.993,18.12L16.393,16.377ZM15.199,17.652C14.711,17.915 14.171,18.001 13.649,17.912L12.969,21.853C14.386,22.098 15.833,21.855 17.098,21.172L15.199,17.652ZM13.649,17.912C13.126,17.821 12.62,17.553 12.213,17.117L9.288,19.846C10.269,20.897 11.554,21.609 12.969,21.853L13.649,17.912ZM12.213,17.117C11.804,16.679 11.519,16.095 11.421,15.443L7.465,16.037C7.679,17.462 8.309,18.797 9.288,19.846L12.213,17.117ZM11.421,15.443C11.323,14.791 11.421,14.126 11.692,13.548L8.072,11.848C7.46,13.149 7.251,14.613 7.465,16.037L11.421,15.443ZM11.692,13.548C11.963,12.972 12.384,12.528 12.873,12.256L10.929,8.76C9.676,9.457 8.684,10.545 8.072,11.848L11.692,13.548ZM12.873,12.256C13.359,11.986 13.899,11.892 14.421,11.975L15.049,8.025C13.629,7.799 12.186,8.061 10.929,8.76L12.873,12.256ZM14.421,11.975C14.955,12.06 15.473,12.33 15.888,12.775L18.812,10.046C17.812,8.974 16.495,8.255 15.049,8.025L14.421,11.975ZM15.888,12.775C16.305,13.222 16.593,13.82 16.685,14.487L20.648,13.938C20.446,12.483 19.811,11.116 18.812,10.046L15.888,12.775ZM20.417,10.125L20.428,10.125L20.428,6.125L20.417,6.125L20.417,10.125Z" fill="#62420E"/>
</svg>
