<svg width="28" height="24" viewBox="0 0 28 24" fill="none" xmlns="http://www.w3.org/2000/svg" xmlns:xlink="http://www.w3.org/1999/xlink">
<path d="M26.75,-0.25C25.553,0.594 24.228,1.24 22.825,1.663C22.072,0.797 21.072,0.183 19.959,-0.095C18.846,-0.373 17.674,-0.303 16.603,0.106C15.531,0.515 14.611,1.243 13.966,2.192C13.322,3.141 12.985,4.266 13,5.413L13,6.663C10.803,6.72 8.627,6.232 6.664,5.244C4.701,4.256 3.013,2.798 1.75,1C1.75,1 -3.25,12.25 8,17.25C5.426,18.998 2.359,19.874 -0.75,19.75C10.5,26 24.25,19.75 24.25,5.375C24.249,5.027 24.215,4.68 24.15,4.338C25.426,3.079 26.326,1.491 26.75,-0.25Z" fill="#62420E"/>
</svg>
